<svg width="185" height="36" viewBox="0 0 185 36" fill="none" xmlns="http://www.w3.org/2000/svg">
<g clip-path="url(#clip0_736_1325)">
<path d="M35.3747 31.1524C34.8634 32.3519 34.0535 33.4048 33.0198 34.2137C32.2643 34.7992 31.4047 35.2405 30.485 35.5151C29.0568 35.8552 27.5887 36.0044 26.1202 35.9588H9.93607C8.47248 36.0054 7.00923 35.8562 5.58631 35.5151C4.65552 35.2453 3.78515 34.8036 3.02144 34.2137C2.01811 33.4285 1.22505 32.413 0.711569 31.2559C0.15796 29.5978 -0.0760559 27.8523 0.021606 26.1093V10.1077C-0.0581793 8.39831 0.180763 6.68901 0.726567 5.06465C1.2316 3.89844 2.01969 2.87254 3.02144 2.07728C3.78067 1.48898 4.64579 1.04742 5.57131 0.775856C6.99423 0.434798 8.45748 0.285549 9.92108 0.332187H26.1652C27.6337 0.286565 29.1018 0.435791 30.5299 0.775856C31.4338 1.05546 32.2779 1.49661 33.0198 2.07728C34.0232 2.86248 34.8162 3.87798 35.3297 5.03508C35.8741 6.66973 36.108 8.38937 36.0197 10.1077V26.1093C36.1188 27.8151 35.9002 29.5243 35.3747 31.1524Z" fill="url(#paint0_linear_736_1325)"/>
<path d="M20.661 20.77C20.3066 20.4485 19.8904 20.2004 19.4369 20.0403C18.9835 19.8803 18.502 19.8116 18.0211 19.8383C17.5453 19.8156 17.0695 19.8862 16.6215 20.0462C16.1735 20.2061 15.7621 20.4521 15.4113 20.77C15.1322 21.0423 14.9619 21.4045 14.9313 21.7904C14.8366 22.6852 14.8366 23.5873 14.9313 24.482C15.0213 25.5764 15.2013 27.0257 15.4413 28.5046C15.5355 29.1884 15.6758 29.8653 15.8613 30.5307C16.0278 30.934 16.3225 31.2731 16.7011 31.4971C17.0798 31.7211 17.522 31.8179 17.9612 31.773C18.4025 31.8188 18.8469 31.7226 19.2282 31.4987C19.6094 31.2748 19.9068 30.9352 20.0761 30.5307C20.2616 29.8653 20.4018 29.1884 20.496 28.5046C20.721 27.0257 20.901 25.5468 20.991 24.482C21.0857 23.5873 21.0857 22.6852 20.991 21.7904C21.0022 21.4232 20.8857 21.0631 20.661 20.77ZM15.1113 15.7566C15.1113 16.3415 15.2873 16.9134 15.6169 17.3998C15.9465 17.8862 16.4151 18.2653 16.9632 18.4892C17.5113 18.7131 18.1145 18.7716 18.6964 18.6575C19.2783 18.5434 19.8128 18.2617 20.2324 17.848C20.6519 17.4344 20.9376 16.9073 21.0533 16.3336C21.1692 15.7598 21.1097 15.1651 20.8826 14.6247C20.6556 14.0842 20.2711 13.6222 19.7777 13.2972C19.2845 12.9722 18.7044 12.7988 18.1111 12.7988C17.3155 12.7988 16.5525 13.1104 15.99 13.6651C15.4274 14.2198 15.1113 14.9721 15.1113 15.7566ZM18.0211 4.26553C15.0314 4.27908 12.1424 5.33312 9.86379 7.24178C7.58518 9.15043 6.0633 11.7911 5.56654 14.6981C5.06977 17.6051 5.63003 20.5916 7.14851 23.1311C8.66698 25.6706 11.0461 27.5998 13.8664 28.5786C13.8947 28.586 13.9246 28.5865 13.9532 28.58C13.9818 28.5735 14.0084 28.5601 14.0305 28.5412C14.0527 28.5222 14.0699 28.4982 14.0804 28.4712C14.0911 28.4442 14.0948 28.4151 14.0914 28.3863C14.0164 27.9574 13.9564 27.5286 13.8964 27.1145C13.8904 27.0399 13.8634 26.9685 13.8183 26.9084C13.7733 26.8482 13.712 26.8018 13.6414 26.7743C11.3181 25.7574 9.42048 23.9831 8.26745 21.7495C7.11441 19.5158 6.7762 16.9589 7.30962 14.5084C7.84305 12.0579 9.21561 9.86305 11.1968 8.29264C13.1778 6.72223 15.6467 5.87194 18.1887 5.88464C20.7306 5.89735 23.1906 6.77226 25.1555 8.36238C27.1203 9.95251 28.4702 12.161 28.9785 14.6167C29.4867 17.0724 29.1223 19.6258 27.9463 21.8478C26.7703 24.0698 24.8546 25.8251 22.521 26.8187C22.4504 26.8462 22.3891 26.8926 22.344 26.9527C22.299 27.0129 22.2719 27.0843 22.266 27.1588C22.266 27.5729 22.1459 28.0018 22.0709 28.4307C22.0675 28.4594 22.0712 28.4886 22.0819 28.5156C22.0925 28.5426 22.1096 28.5666 22.1319 28.5855C22.154 28.6045 22.1805 28.6178 22.2092 28.6243C22.2377 28.6309 22.2676 28.6304 22.296 28.6229C25.1593 27.6645 27.5815 25.7294 29.1262 23.1662C30.6707 20.6029 31.2361 17.5801 30.7205 14.6422C30.2049 11.7043 28.6422 9.04458 26.3139 7.14211C23.9856 5.23963 21.0447 4.21952 18.0211 4.26553ZM17.7962 10.0036C19.1961 9.94937 20.5794 10.3184 21.7606 11.0613C22.9416 11.8042 23.8642 12.8854 24.4045 14.1599C24.9447 15.4344 25.0768 16.8414 24.783 18.192C24.4893 19.5427 23.7837 20.7725 22.761 21.7165C22.707 21.7713 22.6646 21.8361 22.6363 21.9072C22.6079 21.9783 22.5943 22.0542 22.596 22.1306C22.6283 22.623 22.6283 23.117 22.596 23.6095C22.597 23.6401 22.606 23.67 22.6222 23.6962C22.6384 23.7224 22.6612 23.744 22.6884 23.7589C22.7156 23.7738 22.7463 23.7815 22.7774 23.7812C22.8085 23.7809 22.839 23.7727 22.8659 23.7574C24.3692 22.7487 25.505 21.2915 26.1067 19.5996C26.7083 17.9078 26.7442 16.0703 26.209 14.3568C25.6737 12.6434 24.5956 11.1442 23.1328 10.0793C21.67 9.01433 19.8995 8.43969 18.0812 8.43969C16.2628 8.43969 14.4924 9.01433 13.0296 10.0793C11.5668 11.1442 10.4886 12.6434 9.95339 14.3568C9.41817 16.0703 9.45402 17.9078 10.0557 19.5996C10.6573 21.2915 11.7932 22.7487 13.2964 23.7574C13.3221 23.774 13.3521 23.7832 13.3829 23.7839C13.4136 23.7847 13.444 23.7769 13.4706 23.7615C13.497 23.7461 13.5187 23.7238 13.533 23.6969C13.5473 23.67 13.5537 23.6397 13.5514 23.6095C13.5514 23.1067 13.5514 22.6482 13.5514 22.1306C13.5591 22.0536 13.5483 21.9759 13.5195 21.9039C13.4909 21.8319 13.4452 21.7677 13.3864 21.7165C12.4007 20.796 11.713 19.6088 11.4097 18.304C11.1065 16.9992 11.2013 15.6351 11.6822 14.3833C12.1631 13.1315 13.0087 12.0478 14.1125 11.2685C15.2164 10.4893 16.5293 10.0492 17.8862 10.0036H17.7962Z" fill="white"/>
<path d="M53.4787 19.7222H47.9141L46.5191 23.6117H44.2092L49.5189 9.1925H51.9788L57.2586 23.6117H54.8587L53.4787 19.7222ZM48.484 17.9919H52.9088L50.7339 11.6623L48.484 17.9919Z" fill="#14142B"/>
<path d="M68.6288 18.3627C68.6288 21.631 66.8589 23.7311 64.1291 23.7311C63.4493 23.7661 62.7733 23.6112 62.1789 23.2841C61.5845 22.9571 61.0959 22.4712 60.7692 21.8825V27.103H58.5944V13.0978H60.7092V14.8429C61.0562 14.2618 61.5555 13.7835 62.1545 13.4583C62.7536 13.133 63.4305 12.9727 64.114 12.9943C66.8438 12.9943 68.6288 15.0352 68.6288 18.3627ZM66.3789 18.3627C66.3789 16.2331 65.2689 14.8281 63.5591 14.8281C61.8492 14.8281 60.7692 16.307 60.7692 18.3627C60.7692 20.4183 61.8941 21.8972 63.5591 21.8972C65.224 21.8972 66.3789 20.5071 66.3789 18.3627Z" fill="#14142B"/>
<path d="M80.3728 18.363C80.3728 21.6313 78.6029 23.7314 75.8731 23.7314C75.1958 23.7635 74.523 23.6073 73.9316 23.2804C73.3401 22.9535 72.8538 22.4692 72.5282 21.8827V27.1032H70.3234V13.0981H72.4533V14.8432C72.799 14.261 73.2979 13.7819 73.8974 13.4564C74.4967 13.131 75.1742 12.9714 75.8581 12.9946C78.5879 12.9946 80.3728 15.0355 80.3728 18.363ZM78.1229 18.363C78.1229 16.2334 77.013 14.8284 75.3031 14.8284C73.5931 14.8284 72.5132 16.3073 72.5132 18.363C72.5132 20.4186 73.6382 21.8975 75.3031 21.8975C76.968 21.8975 78.1229 20.5074 78.1229 18.363Z" fill="#14142B"/>
<path d="M82.1421 9.19263H84.3319V23.6119H82.1421V9.19263Z" fill="#14142B"/>
<path d="M95.7317 20.5211C95.4932 21.5158 94.8961 22.3913 94.0519 22.9844C93.2075 23.5774 92.1733 23.8478 91.1418 23.7451C88.0371 23.7451 86.1172 21.6894 86.1172 18.4063C86.1172 15.1231 88.052 12.9639 91.0519 12.9639C94.0517 12.9639 95.8666 15.0344 95.8666 18.1548V18.8943H88.367V19.0274C88.3348 19.4138 88.3862 19.8025 88.5179 20.1678C88.6496 20.5331 88.8585 20.8666 89.1308 21.1463C89.403 21.426 89.7325 21.6454 90.0974 21.79C90.4622 21.9346 90.854 22.0012 91.2468 21.9852C91.764 22.0344 92.2833 21.9169 92.7269 21.6502C93.1705 21.3835 93.5143 20.9821 93.7067 20.5063L95.7317 20.5211ZM88.337 17.3858H93.6618C93.6826 17.0384 93.6301 16.6905 93.5075 16.3641C93.385 16.0377 93.1949 15.74 92.9496 15.4898C92.7043 15.2395 92.409 15.0422 92.0823 14.9104C91.7557 14.7785 91.4048 14.715 91.0519 14.7238C90.6955 14.7199 90.3419 14.7859 90.0117 14.9181C89.6816 15.0503 89.3813 15.246 89.1287 15.4938C88.8759 15.7416 88.6758 16.0365 88.5399 16.3613C88.4039 16.6862 88.335 17.0344 88.337 17.3858Z" fill="#14142B"/>
<path d="M107.521 9.19343C108.161 9.16179 108.799 9.26242 109.397 9.48885C109.994 9.71529 110.537 10.0625 110.991 10.5082C111.444 10.9539 111.798 11.4883 112.03 12.0768C112.262 12.6654 112.365 13.2953 112.335 13.9259C112.363 14.5637 112.256 15.2003 112.019 15.7947C111.783 16.389 111.423 16.9279 110.962 17.3765C110.501 17.8252 109.95 18.1737 109.345 18.3996C108.739 18.6254 108.092 18.7237 107.446 18.6879H104.311V23.6127H102.016V9.19343H107.521ZM104.311 16.8097H106.906C107.31 16.8634 107.72 16.8277 108.108 16.7054C108.496 16.583 108.852 16.377 109.149 16.1023C109.447 15.8276 109.678 15.4911 109.827 15.1172C109.976 14.7433 110.039 14.3414 110.011 13.9407C110.039 13.5419 109.976 13.1419 109.829 12.7698C109.68 12.3976 109.45 12.0628 109.154 11.7894C108.858 11.5161 108.504 11.3112 108.117 11.1896C107.731 11.068 107.323 11.0327 106.921 11.0864H104.311V16.8097Z" fill="#14142B"/>
<path d="M113.131 18.3619C113.131 15.0492 115.11 12.9639 118.2 12.9639C121.29 12.9639 123.255 15.0492 123.255 18.3619C123.255 21.6746 121.305 23.7451 118.2 23.7451C115.095 23.7451 113.131 21.6746 113.131 18.3619ZM121.02 18.3619C121.02 16.0844 119.971 14.7534 118.2 14.7534C116.43 14.7534 115.366 16.0992 115.366 18.3619C115.366 20.6246 116.415 21.9704 118.2 21.9704C119.985 21.9704 121.02 20.6394 121.02 18.3619Z" fill="#14142B"/>
<path d="M124.8 18.3618C124.8 15.1082 126.615 12.9934 129.3 12.9934C129.978 12.9595 130.651 13.115 131.242 13.442C131.835 13.7691 132.32 14.2544 132.645 14.842V9.19263H134.835V23.6119H132.704V21.8224C132.379 22.4257 131.886 22.9253 131.283 23.2631C130.68 23.6008 129.993 23.7628 129.3 23.7302C126.615 23.7302 124.8 21.6006 124.8 18.3618ZM127.035 18.3618C127.035 20.521 128.145 21.8963 129.855 21.8963C131.565 21.8963 132.66 20.4914 132.66 18.3618C132.66 16.2322 131.535 14.8272 129.855 14.8272C128.175 14.8272 127.035 16.2174 127.035 18.3618Z" fill="#14142B"/>
<path d="M144.164 16.7218C144.068 16.1456 143.755 15.6263 143.288 15.2672C142.821 14.9082 142.235 14.7358 141.645 14.7844C139.964 14.7844 138.839 16.1746 138.839 18.3634C138.839 20.5521 139.964 21.9423 141.659 21.9423C142.24 21.9993 142.821 21.8373 143.286 21.4888C143.751 21.1404 144.065 20.6313 144.164 20.0641H146.264C146.132 21.1502 145.575 22.1426 144.712 22.8304C143.849 23.5181 142.749 23.8468 141.645 23.7465C138.644 23.7465 136.619 21.6909 136.619 18.3634C136.619 15.0359 138.599 12.9654 141.629 12.9654C142.743 12.8741 143.85 13.2157 144.714 13.9174C145.577 14.6191 146.128 15.6254 146.248 16.7218H144.164Z" fill="#14142B"/>
<path d="M147.614 20.6258C147.614 18.7919 149.039 17.668 151.573 17.5349L154.498 17.3722V16.5145C154.498 15.3461 153.718 14.6806 152.384 14.6806C151.892 14.6176 151.394 14.7329 150.983 15.0051C150.572 15.2772 150.275 15.6875 150.149 16.1595H148.094C148.094 14.2665 149.954 12.9059 152.443 12.9059C154.934 12.9059 156.673 14.2813 156.673 16.3518V23.6131H154.513V21.8828C154.175 22.4694 153.684 22.9558 153.091 23.2914C152.496 23.6269 151.823 23.7993 151.138 23.7906C150.692 23.8318 150.241 23.7805 149.816 23.6402C149.39 23.4999 148.999 23.2736 148.668 22.9757C148.336 22.6778 148.07 22.315 147.889 21.9103C147.708 21.5057 147.614 21.0682 147.614 20.6258ZM154.498 19.6793V18.8659L151.873 19.0286C150.554 19.1025 149.819 19.6645 149.819 20.5075C149.819 21.3504 150.583 21.9864 151.768 21.9864C152.102 22.0127 152.438 21.9738 152.757 21.8721C153.076 21.7704 153.371 21.6078 153.626 21.3935C153.881 21.1793 154.09 20.9176 154.243 20.6235C154.395 20.3293 154.487 20.0085 154.513 19.6793H154.498Z" fill="#14142B"/>
<path d="M162.778 12.9781C165.148 12.9781 166.843 14.2648 166.887 16.1282H164.833C164.742 15.1965 163.948 14.6493 162.717 14.6493C161.488 14.6493 160.753 15.1817 160.753 15.9951C160.753 16.8085 161.278 17.0451 162.373 17.3261L164.172 17.7254C166.318 18.243 167.173 19.0268 167.173 20.5649C167.173 22.4579 165.358 23.7593 162.672 23.7593C159.988 23.7593 158.473 22.4874 158.308 20.5649H160.513C160.677 21.5853 161.488 22.1177 162.823 22.1177C164.157 22.1177 164.953 21.5853 164.953 20.7571C164.953 19.929 164.547 19.7515 163.452 19.4705L161.548 19.012C159.628 18.5536 158.652 17.5331 158.652 16.1282C158.608 14.25 160.302 12.9781 162.778 12.9781Z" fill="#14142B"/>
<path d="M171.898 10.5978V13.0824H173.923V14.7979H171.898V20.5952C171.898 21.4973 172.302 21.9114 173.188 21.9114H173.908V23.6121C173.507 23.6813 173.1 23.711 172.692 23.7009C170.533 23.7009 169.693 22.9023 169.693 20.8614V14.8127H168.193V13.0972H169.693V10.5978H171.898Z" fill="#14142B"/>
<path d="M179.802 12.9781C182.173 12.9781 183.867 14.2648 183.912 16.1282H181.857C181.767 15.1965 180.972 14.6493 179.742 14.6493C178.512 14.6493 177.777 15.1817 177.777 15.9951C177.777 16.8085 178.303 17.0451 179.398 17.3261L181.197 17.7254C183.342 18.243 184.197 19.0268 184.197 20.5649C184.197 22.4579 182.382 23.7593 179.773 23.7593C177.163 23.7593 175.513 22.4283 175.363 20.5501H177.522C177.687 21.5705 178.498 22.1029 179.832 22.1029C181.167 22.1029 181.962 21.5705 181.962 20.7423C181.962 19.9142 181.557 19.7367 180.462 19.4557L178.512 18.9973C176.592 18.5388 175.617 17.5184 175.617 16.1134C175.632 14.25 177.327 12.9781 179.802 12.9781Z" fill="#14142B"/>
</g>
<defs>
<linearGradient id="paint0_linear_736_1325" x1="18.0507" y1="0.332187" x2="18.0507" y2="35.8848" gradientUnits="userSpaceOnUse">
<stop stop-color="#F452FF"/>
<stop offset="1" stop-color="#832BC1"/>
</linearGradient>
<clipPath id="clip0_736_1325">
<rect width="185" height="36" fill="white"/>
</clipPath>
</defs>
</svg>
