<svg width="203" height="37" viewBox="0 0 203 37" fill="none" xmlns="http://www.w3.org/2000/svg">
<g clip-path="url(#clip0_736_1323)">
<path d="M17.0271 11.5476V17.047V19.2451V24.7444H21.6487V19.2451V17.047V11.5476H17.0271Z" fill="#FAB908"/>
<path d="M3.1626 19.1764C4.43881 19.1764 5.47338 18.1609 5.47338 16.9082C5.47338 15.6555 4.43881 14.64 3.1626 14.64C1.88638 14.64 0.851807 15.6555 0.851807 16.9082C0.851807 18.1609 1.88638 19.1764 3.1626 19.1764Z" fill="#0066D9"/>
<path d="M3.1626 21.651C4.43881 21.651 5.47338 20.6355 5.47338 19.3828C5.47338 18.1301 4.43881 17.1146 3.1626 17.1146C1.88638 17.1146 0.851807 18.1301 0.851807 19.3828C0.851807 20.6355 1.88638 21.651 3.1626 21.651Z" fill="#0066D9"/>
<path d="M5.47338 16.9086H0.851807V19.383H5.47338V16.9086Z" fill="#0066D9"/>
<path d="M35.5134 21.651C36.7897 21.651 37.8242 20.6355 37.8242 19.3828C37.8242 18.1301 36.7897 17.1146 35.5134 17.1146C34.2372 17.1146 33.2026 18.1301 33.2026 19.3828C33.2026 20.6355 34.2372 21.651 35.5134 21.651Z" fill="#4285F4"/>
<path d="M35.5134 19.1764C36.7897 19.1764 37.8242 18.1609 37.8242 16.9082C37.8242 15.6555 36.7897 14.64 35.5134 14.64C34.2372 14.64 33.2026 15.6555 33.2026 16.9082C33.2026 18.1609 34.2372 19.1764 35.5134 19.1764Z" fill="#4285F4"/>
<path d="M33.2026 19.3832H37.8242V16.9088H33.2026V19.3832Z" fill="#4285F4"/>
<path d="M11.1452 26.6C12.4214 26.6 13.456 25.5845 13.456 24.3318C13.456 23.0791 12.4214 22.0636 11.1452 22.0636C9.86904 22.0636 8.83447 23.0791 8.83447 24.3318C8.83447 25.5845 9.86904 26.6 11.1452 26.6Z" fill="#EA4335"/>
<path d="M11.1452 29.0746C12.4214 29.0746 13.456 28.0591 13.456 26.8064C13.456 25.5537 12.4214 24.5381 11.1452 24.5381C9.86904 24.5381 8.83447 25.5537 8.83447 26.8064C8.83447 28.0591 9.86904 29.0746 11.1452 29.0746Z" fill="#EA4335"/>
<path d="M13.456 24.3322H8.83447V26.8066H13.456V24.3322Z" fill="#EA4335"/>
<path d="M11.1452 11.7534C12.4214 11.7534 13.456 10.7379 13.456 9.48524C13.456 8.23255 12.4214 7.21704 11.1452 7.21704C9.86904 7.21704 8.83447 8.23255 8.83447 9.48524C8.83447 10.7379 9.86904 11.7534 11.1452 11.7534Z" fill="#EA4335"/>
<path d="M11.1452 19.7949C12.4214 19.7949 13.456 18.7794 13.456 17.5267C13.456 16.274 12.4214 15.2585 11.1452 15.2585C9.86904 15.2585 8.83447 16.274 8.83447 17.5267C8.83447 18.7794 9.86904 19.7949 11.1452 19.7949Z" fill="#EA4335"/>
<path d="M13.456 9.48499H8.83447V17.5784H13.456V9.48499Z" fill="#EA4335"/>
<path d="M27.531 14.228C28.8072 14.228 29.8417 13.2125 29.8417 11.9598C29.8417 10.7071 28.8072 9.69159 27.531 9.69159C26.2548 9.69159 25.2202 10.7071 25.2202 11.9598C25.2202 13.2125 26.2548 14.228 27.531 14.228Z" fill="#34A853"/>
<path d="M27.531 11.7534C28.8072 11.7534 29.8417 10.7379 29.8417 9.48524C29.8417 8.23255 28.8072 7.21704 27.531 7.21704C26.2548 7.21704 25.2202 8.23255 25.2202 9.48524C25.2202 10.7379 26.2548 11.7534 27.531 11.7534Z" fill="#34A853"/>
<path d="M25.22 11.9595H29.8416V9.48511H25.22V11.9595Z" fill="#34A853"/>
<path d="M19.3379 7.01095C20.6141 7.01095 21.6487 5.99545 21.6487 4.74275C21.6487 3.49006 20.6141 2.47455 19.3379 2.47455C18.0617 2.47455 17.0271 3.49006 17.0271 4.74275C17.0271 5.99545 18.0617 7.01095 19.3379 7.01095Z" fill="#FAB908"/>
<path d="M19.3379 4.5364C20.6141 4.5364 21.6487 3.52089 21.6487 2.2682C21.6487 1.01551 20.6141 0 19.3379 0C18.0617 0 17.0271 1.01551 17.0271 2.2682C17.0271 3.52089 18.0617 4.5364 19.3379 4.5364Z" fill="#FAB908"/>
<path d="M17.0273 4.74254H21.649V2.26813H17.0273V4.74254Z" fill="#FAB908"/>
<path d="M19.3379 36.291C20.6141 36.291 21.6487 35.2755 21.6487 34.0228C21.6487 32.7701 20.6141 31.7546 19.3379 31.7546C18.0617 31.7546 17.0271 32.7701 17.0271 34.0228C17.0271 35.2755 18.0617 36.291 19.3379 36.291Z" fill="#FAB908"/>
<path d="M19.3379 33.817C20.6141 33.817 21.6487 32.8015 21.6487 31.5488C21.6487 30.2961 20.6141 29.2806 19.3379 29.2806C18.0617 29.2806 17.0271 30.2961 17.0271 31.5488C17.0271 32.8015 18.0617 33.817 19.3379 33.817Z" fill="#FAB908"/>
<path d="M17.0273 34.0231H21.649V31.5487H17.0273V34.0231Z" fill="#FAB908"/>
<path d="M27.531 29.0746C28.8072 29.0746 29.8417 28.0591 29.8417 26.8064C29.8417 25.5537 28.8072 24.5381 27.531 24.5381C26.2548 24.5381 25.2202 25.5537 25.2202 26.8064C25.2202 28.0591 26.2548 29.0746 27.531 29.0746Z" fill="#34A853"/>
<path d="M27.531 21.0325C28.8072 21.0325 29.8417 20.017 29.8417 18.7643C29.8417 17.5116 28.8072 16.4961 27.531 16.4961C26.2548 16.4961 25.2202 17.5116 25.2202 18.7643C25.2202 20.017 26.2548 21.0325 27.531 21.0325Z" fill="#34A853"/>
<path d="M25.22 26.8062H29.8416V18.7643H25.22V26.8062Z" fill="#34A853"/>
<path d="M19.3379 13.8155C20.6141 13.8155 21.6487 12.7999 21.6487 11.5473C21.6487 10.2946 20.6141 9.27905 19.3379 9.27905C18.0617 9.27905 17.0271 10.2946 17.0271 11.5473C17.0271 12.7999 18.0617 13.8155 19.3379 13.8155Z" fill="#FAB908"/>
<path d="M19.3379 27.0125C20.6141 27.0125 21.6487 25.997 21.6487 24.7443C21.6487 23.4916 20.6141 22.4761 19.3379 22.4761C18.0617 22.4761 17.0271 23.4916 17.0271 24.7443C17.0271 25.997 18.0617 27.0125 19.3379 27.0125Z" fill="#FAB908"/>
<path fill-rule="evenodd" clip-rule="evenodd" d="M125.072 23.9189H123.148V9.22058H128.251C129.52 9.22058 130.618 9.63457 131.545 10.4625C132.472 11.2905 132.936 12.334 132.936 13.5931C132.936 14.8522 132.472 15.8957 131.545 16.7237C130.618 17.5517 129.52 17.9657 128.251 17.9657H125.072V23.9189ZM125.072 16.1592H128.293C129.102 16.1592 129.75 15.8923 130.238 15.3586C130.726 14.8248 130.97 14.2363 130.97 13.5931C130.97 12.9499 130.726 12.3614 130.238 11.8277C129.75 11.2939 129.102 11.0271 128.293 11.0271H125.072V16.1592ZM134.531 15.0712C135.521 14.0447 136.783 13.5315 138.317 13.5315C139.851 13.5315 141.112 14.0413 142.102 15.0609C143.092 16.0805 143.587 17.3566 143.587 18.8894C143.587 20.4222 143.092 21.6984 142.102 22.718C141.112 23.7376 139.851 24.2473 138.317 24.2473C136.783 24.2473 135.521 23.7376 134.531 22.718C133.542 21.6984 133.047 20.4222 133.047 18.8894C133.047 17.3566 133.542 16.0839 134.531 15.0712ZM135.953 21.5376C136.623 22.1945 137.411 22.523 138.317 22.523C139.223 22.523 140.007 22.1911 140.67 21.5273C141.331 20.8636 141.663 19.9843 141.663 18.8894C141.663 17.7946 141.331 16.9153 140.67 16.2515C140.007 15.5878 139.223 15.2559 138.317 15.2559C137.411 15.2559 136.626 15.5878 135.963 16.2515C135.302 16.9153 134.971 17.7946 134.971 18.8894C134.971 19.9843 135.298 20.867 135.953 21.5376ZM149.386 24.2473C148.062 24.2473 146.918 23.7341 145.956 22.7077C144.994 21.6813 144.513 20.4085 144.513 18.8894C144.513 17.3703 144.994 16.0976 145.956 15.0712C146.918 14.0447 148.062 13.5315 149.386 13.5315C150.166 13.5315 150.867 13.6958 151.487 14.0242C152.109 14.3527 152.572 14.7632 152.878 15.2559H152.962L152.878 13.86V9.22058H154.803V23.9189H152.962V22.523H152.878C152.572 23.0156 152.109 23.4262 151.487 23.7547C150.867 24.0831 150.166 24.2473 149.386 24.2473ZM149.7 22.523C150.606 22.523 151.376 22.1945 152.011 21.5376C152.645 20.8807 152.962 19.998 152.962 18.8894C152.962 17.7809 152.645 16.8982 152.011 16.2413C151.376 15.5844 150.606 15.2559 149.7 15.2559C148.807 15.2559 148.04 15.5878 147.399 16.2515C146.758 16.9153 146.437 17.7946 146.437 18.8894C146.437 19.9843 146.758 20.8636 147.399 21.5273C148.04 22.1911 148.807 22.523 149.7 22.523ZM161.48 24.2473C159.947 24.2473 158.684 23.7376 157.695 22.718C156.705 21.6984 156.21 20.4222 156.21 18.8894C156.21 17.3566 156.705 16.0805 157.695 15.0609C158.684 14.0413 159.947 13.5315 161.48 13.5315C162.623 13.5315 163.571 13.8052 164.324 14.3527C165.077 14.9001 165.628 15.5912 165.976 16.426L164.22 17.1445C163.69 15.8854 162.735 15.2559 161.355 15.2559C160.504 15.2559 159.755 15.5981 159.106 16.2823C158.458 16.9666 158.134 17.8356 158.134 18.8894C158.134 19.9432 158.458 20.8123 159.106 21.4965C159.755 22.1808 160.504 22.523 161.355 22.523C162.791 22.523 163.781 21.8934 164.324 20.6344L166.039 21.3528C165.69 22.174 165.13 22.8617 164.355 23.4159C163.582 23.9702 162.623 24.2473 161.48 24.2473ZM170.604 24.2473C169.517 24.2473 168.607 23.9394 167.875 23.3236C167.143 22.7077 166.777 21.8934 166.777 20.8807C166.777 19.7858 167.209 18.9271 168.074 18.3044C168.938 17.6817 170.005 17.3703 171.273 17.3703C172.402 17.3703 173.33 17.5756 174.055 17.9862V17.6988C174.055 16.9598 173.797 16.3679 173.281 15.9231C172.765 15.4783 172.131 15.2559 171.378 15.2559C170.82 15.2559 170.315 15.3859 169.861 15.646C169.409 15.906 169.099 16.2618 168.931 16.7134L167.174 15.9744C167.411 15.3722 167.879 14.8146 168.576 14.3014C169.273 13.7881 170.193 13.5315 171.336 13.5315C172.647 13.5315 173.735 13.9079 174.599 14.6606C175.464 15.4133 175.896 16.4739 175.896 17.8425V23.9189H174.055V22.523H173.971C173.204 23.6726 172.082 24.2473 170.604 24.2473ZM170.918 22.523C171.713 22.523 172.434 22.2321 173.082 21.6505C173.731 21.0689 174.055 20.3812 174.055 19.5874C173.511 19.1495 172.695 18.9305 171.608 18.9305C170.673 18.9305 169.969 19.1289 169.496 19.5258C169.022 19.9227 168.785 20.388 168.785 20.9217C168.785 21.4144 169.001 21.8045 169.433 22.0919C169.865 22.3793 170.36 22.523 170.918 22.523ZM181.527 24.2473C180.384 24.2473 179.439 23.9736 178.693 23.4262C177.947 22.8788 177.4 22.1945 177.051 21.3734L178.766 20.6754C179.311 21.9345 180.238 22.564 181.548 22.564C182.147 22.564 182.639 22.434 183.022 22.174C183.406 21.914 183.598 21.5718 183.598 21.1476C183.598 20.4906 183.13 20.0459 182.196 19.8132L180.126 19.3205C179.47 19.1563 178.85 18.845 178.264 18.3865C177.679 17.928 177.387 17.3088 177.387 16.5287C177.387 15.6391 177.786 14.9172 178.588 14.3629C179.39 13.8087 180.342 13.5315 181.444 13.5315C182.349 13.5315 183.158 13.7334 183.869 14.1371C184.58 14.5409 185.089 15.1191 185.396 15.8718L183.723 16.5492C183.346 15.6596 182.566 15.2149 181.381 15.2149C180.809 15.2149 180.328 15.3312 179.938 15.5638C179.547 15.7965 179.352 16.1113 179.352 16.5081C179.352 17.0829 179.805 17.473 180.711 17.6783L182.74 18.1504C183.702 18.3694 184.413 18.7457 184.873 19.2795C185.334 19.8132 185.563 20.4154 185.563 21.086C185.563 21.9892 185.187 22.7419 184.434 23.3441C183.682 23.9463 182.712 24.2473 181.527 24.2473ZM191.321 24.0831C190.247 24.0831 189.428 23.8026 188.864 23.2415C188.298 22.6803 188.016 21.8866 188.016 20.8602V15.5844H186.218V13.86H188.016V10.7807H189.94V13.86H192.45V15.5844H189.94V20.7165C189.94 21.8113 190.401 22.3587 191.321 22.3587C191.669 22.3587 191.962 22.304 192.198 22.1945L192.868 23.8162C192.45 23.9942 191.934 24.0831 191.321 24.0831ZM198.06 24.2473C196.917 24.2473 195.973 23.9736 195.227 23.4262C194.481 22.8788 193.934 22.1945 193.585 21.3734L195.3 20.6754C195.843 21.9345 196.771 22.564 198.081 22.564C198.681 22.564 199.172 22.434 199.556 22.174C199.94 21.914 200.131 21.5718 200.131 21.1476C200.131 20.4906 199.664 20.0459 198.73 19.8132L196.659 19.3205C196.004 19.1563 195.384 18.845 194.798 18.3865C194.212 17.928 193.919 17.3088 193.919 16.5287C193.919 15.6391 194.32 14.9172 195.122 14.3629C195.924 13.8087 196.876 13.5315 197.977 13.5315C198.883 13.5315 199.692 13.7334 200.403 14.1371C201.114 14.5409 201.623 15.1191 201.929 15.8718L200.257 16.5492C199.88 15.6596 199.099 15.2149 197.914 15.2149C197.342 15.2149 196.861 15.3312 196.472 15.5638C196.081 15.7965 195.886 16.1113 195.886 16.5081C195.886 17.0829 196.338 17.473 197.245 17.6783L199.273 18.1504C200.236 18.3694 200.947 18.7457 201.407 19.2795C201.867 19.8132 202.097 20.4154 202.097 21.086C202.097 21.9892 201.72 22.7419 200.968 23.3441C200.214 23.9463 199.246 24.2473 198.06 24.2473Z" fill="#14142B"/>
<path d="M50.0793 15.8208C50.0793 11.1699 54.0498 7.401 58.7879 7.401C61.4022 7.401 63.2649 8.41138 64.67 9.72648L63.0034 11.3463C62.0068 10.4161 60.6506 9.69441 58.7879 9.69441C55.3405 9.69441 52.6446 12.4208 52.6446 15.8048C52.6446 19.1888 55.3405 21.9152 58.7879 21.9152C61.0264 21.9152 62.3009 21.0331 63.1178 20.2312C63.7877 19.5737 64.2289 18.6275 64.3922 17.3444H58.7879V15.051H66.6796C66.7613 15.468 66.8104 15.9491 66.8104 16.4944C66.8104 18.2265 66.3365 20.3595 64.7843 21.8671C63.2649 23.4067 61.3369 24.2246 58.7879 24.2246C54.0498 24.2246 50.0793 20.4558 50.0793 15.8208ZM73.1008 13.4954C76.1562 13.4954 78.6396 15.7727 78.6396 18.9161C78.6396 22.0435 76.1562 24.3369 73.1008 24.3369C70.0455 24.3369 67.5619 22.0435 67.5619 18.9161C67.5619 15.7727 70.0455 13.4954 73.1008 13.4954ZM73.1008 22.1878C74.7674 22.1878 76.2215 20.8407 76.2215 18.9001C76.2215 16.9435 74.7674 15.6124 73.1008 15.6124C71.4179 15.6124 69.9801 16.9435 69.9801 18.9001C69.9801 20.8407 71.4342 22.1878 73.1008 22.1878ZM85.1916 13.4954C88.2469 13.4954 90.7305 15.7727 90.7305 18.9161C90.7305 22.0435 88.2469 24.3369 85.1916 24.3369C82.1362 24.3369 79.6527 22.0435 79.6527 18.9161C79.6527 15.7727 82.1362 13.4954 85.1916 13.4954ZM85.1916 22.1878C86.8581 22.1878 88.3122 20.8407 88.3122 18.9001C88.3122 16.9435 86.8745 15.6124 85.1916 15.6124C83.5086 15.6124 82.0708 16.9435 82.0708 18.9001C82.0708 20.8407 83.525 22.1878 85.1916 22.1878ZM100.027 13.6718H102.347V23.4067C102.347 27.4162 99.9455 29.052 97.1025 29.052C94.423 29.052 92.8054 27.2879 92.2009 25.8445L94.3086 24.9784C94.6844 25.8605 95.5994 26.903 97.0862 26.903C98.8998 26.903 100.027 25.7964 100.027 23.7275V22.9416H99.9455C99.4063 23.5992 98.3606 24.1765 97.0372 24.1765C94.276 24.1765 91.7434 21.8029 91.7434 18.7718C91.7434 15.7086 94.276 13.335 97.0372 13.335C98.3606 13.335 99.4063 13.9123 99.9455 14.5539H100.027V13.6718ZM97.2496 22.0435C98.8998 22.0435 100.207 20.6803 100.191 18.7718C100.191 16.8633 98.8998 15.468 97.2496 15.468C95.5831 15.468 94.1779 16.8633 94.1779 18.7718C94.1779 20.6643 95.5831 22.0435 97.2496 22.0435ZM103.998 23.968V8.04251H106.415V23.968H103.998ZM113.066 22.1878C114.307 22.1878 115.157 21.5944 115.794 20.6963L117.673 21.9312C117.052 22.8133 115.598 24.3369 113.066 24.3369C109.928 24.3369 107.592 21.9473 107.592 18.9161C107.592 15.6925 109.961 13.4954 112.804 13.4954C115.664 13.4954 117.068 15.7246 117.526 16.9435L117.771 17.5529L110.386 20.552C110.958 21.6265 111.824 22.1878 113.066 22.1878ZM112.886 15.5803C111.644 15.5803 109.928 16.6548 109.994 18.7397L114.928 16.735C114.667 16.0454 113.85 15.5803 112.886 15.5803Z" fill="#14142B"/>
</g>
<defs>
<clipPath id="clip0_736_1323">
<rect width="203" height="37" fill="white"/>
</clipPath>
</defs>
</svg>
