<svg width="174" height="36" viewBox="0 0 174 36" fill="none" xmlns="http://www.w3.org/2000/svg">
<g clip-path="url(#clip0_736_1324)">
<path d="M46.8613 16.6318C44.7066 16.1146 44.1102 15.8465 44.1102 14.9845C44.1102 14.1225 44.6104 13.7585 46.034 13.7585C46.62 13.7621 47.1986 13.8885 47.7322 14.1294C48.2659 14.3703 48.7426 14.7204 49.1314 15.1569L51.0552 13.2413C50.4342 12.5626 49.6761 12.0223 48.8307 11.6559C47.9852 11.2895 47.0715 11.1052 46.1495 11.1151C43.4561 11.1151 41.2629 12.6283 41.2629 15.0994C41.2629 17.5704 43.0136 18.5857 45.5338 19.1795C48.0541 19.7733 48.5927 20.1564 48.5927 21.0951C48.5927 22.0337 47.8232 22.57 46.2072 22.57C45.5429 22.5842 44.8839 22.4505 44.2782 22.1788C43.6724 21.907 43.1352 21.5041 42.7058 20.9993L40.782 22.7616C41.4165 23.5632 42.2354 24.201 43.1697 24.6211C44.1039 25.0412 45.1259 25.2313 46.1495 25.1752C49.8817 25.1752 51.517 23.432 51.517 20.8269C51.44 17.8769 49.0352 17.1299 46.8613 16.6318ZM59.4624 11.1151C55.7301 11.1151 53.5177 13.9884 53.5177 18.1451C53.5177 22.3018 55.7301 25.1752 59.4624 25.1752C63.1946 25.1752 65.3878 22.3018 65.3878 18.1451C65.3878 13.9884 63.2138 11.1151 59.4624 11.1151ZM59.4624 22.4742C57.2692 22.4742 56.3458 20.5587 56.3458 18.1451C56.3458 15.7315 57.2692 13.816 59.4624 13.816C61.6555 13.816 62.5982 15.7315 62.5982 18.1451C62.5982 20.5587 61.6748 22.4742 59.4624 22.4742ZM76.469 18.988C76.469 21.1717 75.3917 22.5126 73.6603 22.5126C71.9288 22.5126 70.8514 21.1334 70.8514 18.9496V11.2875H68.1196V18.9496C68.1196 22.9148 70.3513 25.1369 73.6603 25.1369C76.9692 25.1369 79.2009 22.8574 79.2009 18.9113V11.2491H76.469V18.988ZM91.0132 17.0916V20.0798C90.8401 19.7159 90.3976 19.0454 90.0705 18.5282L85.2032 11.3258H82.7022V24.9645H85.4149V18.9688V15.9805C85.588 16.3253 86.0305 17.0149 86.3575 17.5321L91.398 24.9645H93.8412V11.3258H91.0132V17.0916ZM101.517 11.3258H97.2464V24.9645H101.325C102.25 25.037 103.18 24.9116 104.052 24.5967C104.924 24.2818 105.719 23.7846 106.382 23.1387C107.045 22.4927 107.562 21.7129 107.898 20.8516C108.233 19.9903 108.38 19.0675 108.328 18.1451C108.328 13.1647 105.442 11.3258 101.517 11.3258ZM101.325 22.321H100.017V13.9692H101.46C104.365 13.9692 105.557 15.3676 105.557 18.1451C105.612 18.7103 105.539 19.2805 105.345 19.8144C105.151 20.3483 104.841 20.8326 104.436 21.2322C104.03 21.6319 103.541 21.9369 103.003 22.1252C102.465 22.3135 101.892 22.3804 101.325 22.321ZM116.793 13.816C117.314 13.7884 117.832 13.9157 118.281 14.1817C118.729 14.4477 119.089 14.8405 119.313 15.3101L121.852 14.1416C121.422 13.1902 120.711 12.3914 119.814 11.851C118.918 11.3105 117.877 11.0539 116.831 11.1151C113.272 11.1151 110.752 13.9884 110.752 18.1451C110.752 22.3018 113.156 25.1752 116.735 25.1752C117.796 25.2354 118.85 24.9726 119.757 24.4217C120.664 23.8708 121.382 23.0579 121.814 22.0911L119.505 20.7311C119.278 21.2532 118.902 21.697 118.422 22.0071C117.943 22.3171 117.383 22.4796 116.812 22.4742C114.773 22.4742 113.58 20.5587 113.58 18.1451C113.58 15.7315 114.753 13.816 116.793 13.816ZM126.95 11.3258H124.219V24.9645H132.453V22.2827H126.95V11.3258ZM139.667 11.1151C135.935 11.1151 133.722 13.9884 133.722 18.1451C133.722 22.3018 135.935 25.1752 139.667 25.1752C143.399 25.1752 145.611 22.3018 145.611 18.1451C145.611 13.9884 143.399 11.1151 139.667 11.1151ZM139.667 22.4742C137.454 22.4742 136.531 20.5587 136.531 18.1451C136.531 15.7315 137.454 13.816 139.667 13.816C141.879 13.816 142.783 15.7315 142.783 18.1451C142.783 20.5587 141.879 22.4742 139.667 22.4742ZM156.654 18.988C156.654 21.1717 155.596 22.5126 153.846 22.5126C152.095 22.5126 151.056 21.1334 151.056 18.9496V11.2875H148.305V18.9496C148.305 22.9148 150.537 25.1369 153.846 25.1369C157.154 25.1369 159.405 22.8574 159.405 18.9113V11.2491H156.654V18.988ZM167.101 11.3258H162.83V24.9645H166.908C167.833 25.037 168.763 24.9116 169.635 24.5967C170.508 24.2818 171.302 23.7846 171.965 23.1387C172.629 22.4927 173.146 21.7129 173.481 20.8516C173.817 19.9903 173.963 19.0675 173.911 18.1451C173.911 13.1647 171.025 11.3258 167.101 11.3258ZM166.908 22.321H165.562V13.9692H167.004C169.909 13.9692 171.102 15.3676 171.102 18.1451C171.156 18.7068 171.084 19.2733 170.892 19.8041C170.7 20.335 170.393 20.8171 169.993 21.216C169.592 21.615 169.108 21.9209 168.574 22.1119C168.041 22.3029 167.472 22.3743 166.908 22.321Z" fill="#14142B"/>
<path d="M36.2242 18.1455C36.2242 27.8507 28.2524 35.6149 18.6022 35.6149C8.95206 35.6149 0.840332 27.8507 0.840332 18.1455C0.840332 8.44023 8.8122 0.676025 18.4623 0.676025C28.1125 0.676025 36.2242 8.44023 36.2242 18.1455Z" fill="url(#paint0_linear_736_1324)"/>
<path d="M6.05964 19.3131C6.06647 19.2554 6.10839 19.2149 6.16122 19.2149C6.21212 19.2149 6.2543 19.2553 6.26221 19.3128L6.48163 20.7071L6.26221 22.0776C6.25405 22.1351 6.21238 22.1751 6.16122 22.1751C6.10837 22.1751 6.06647 22.1349 6.05964 22.0771L5.87451 20.7071L6.05964 19.3131Z" fill="white"/>
<path d="M7.09712 18.352C7.15048 18.352 7.19376 18.3933 7.20249 18.4532L7.48533 20.7071L7.20221 22.9116C7.19351 22.9713 7.1502 23.0129 7.09712 23.0129C7.04323 23.0129 6.99884 22.9702 6.99176 22.9111L6.74292 20.7071L6.99176 18.4532C6.9991 18.3947 7.04348 18.352 7.09712 18.352Z" fill="white"/>
<path d="M10.9326 16.5623C10.9374 16.4571 11.0219 16.3742 11.1239 16.3742C11.2255 16.3742 11.3096 16.4571 11.3156 16.5623L11.5397 20.709L11.3156 23.3891V23.3883C11.3096 23.4932 11.2255 23.5761 11.1239 23.5761C11.0219 23.5761 10.9377 23.4935 10.9326 23.3888L10.7344 20.709L10.9326 16.5623Z" fill="white"/>
<path d="M8.94565 17.9604C8.95194 17.8775 9.01592 17.8155 9.09432 17.8155C9.17191 17.8155 9.23588 17.8775 9.24271 17.9598L9.49644 20.7079L9.24271 23.3661C9.23588 23.4484 9.17191 23.5105 9.09432 23.5105C9.01589 23.5105 8.95164 23.4484 8.94565 23.3661L8.72241 20.7079L8.94565 17.9604Z" fill="white"/>
<path d="M13.4212 23.3451C13.416 23.4746 13.3131 23.5758 13.1865 23.5758C13.0591 23.5758 12.9559 23.4744 12.9518 23.3459L12.7795 20.7101L12.9518 15.1899C12.956 15.0604 13.0591 14.9589 13.1868 14.9589C13.3134 14.9589 13.4163 15.0601 13.4215 15.1896L13.6156 20.7103L13.4212 23.3451Z" fill="white"/>
<path d="M17.7305 23.2711C17.7273 23.446 17.5835 23.5883 17.4093 23.5883C17.235 23.5883 17.0907 23.446 17.088 23.2727C17.088 23.2727 16.9668 20.7139 16.9668 20.7098L17.088 14.3362C17.0907 14.1611 17.2347 14.0189 17.4092 14.0189C17.5835 14.0189 17.7275 14.1613 17.7305 14.336L17.8661 20.712L17.7305 23.2711Z" fill="white"/>
<path d="M15.5597 23.3038C15.5556 23.4576 15.4333 23.5783 15.2817 23.5783C15.1289 23.5783 15.0067 23.4576 15.0034 23.3054L14.8564 20.7112L15.0032 15.1502C15.0064 14.9964 15.1287 14.876 15.2814 14.876C15.4331 14.876 15.5553 14.9964 15.5594 15.1502L15.7246 20.7109L15.5597 23.3057V23.3038Z" fill="white"/>
<path d="M10.2751 23.3883C10.2683 23.4824 10.1953 23.554 10.1052 23.554C10.0137 23.554 9.94107 23.4824 9.93508 23.388L9.72461 20.7079L9.93508 18.1593C9.94079 18.0646 10.0137 17.993 10.1052 17.993C10.1956 17.993 10.2685 18.0641 10.2751 18.1582L10.5141 20.7079L10.2751 23.3883Z" fill="white"/>
<path d="M8.21834 23.2843C8.21071 23.3556 8.15735 23.4072 8.09149 23.4072C8.02449 23.4072 7.97113 23.3553 7.96458 23.2838L7.72827 20.7074L7.96458 18.0333C7.97139 17.962 8.02475 17.9102 8.09146 17.9102C8.15733 17.9102 8.21069 17.9618 8.21859 18.0333L8.48677 20.7074L8.21834 23.2843Z" fill="white"/>
<path d="M16.0415 15.3538C16.0447 15.1875 16.1768 15.0577 16.3415 15.0577C16.5059 15.0577 16.6372 15.1875 16.641 15.3532L16.7913 20.7117L16.641 23.2897V23.2876C16.6372 23.4538 16.5059 23.5834 16.3415 23.5834C16.1765 23.5834 16.0448 23.4536 16.0415 23.2895L15.9075 20.7114L16.0415 15.3538Z" fill="white"/>
<path d="M12.3646 23.3718C12.3592 23.4892 12.2652 23.5812 12.1514 23.5812C12.0365 23.5812 11.9429 23.4892 11.9383 23.3729L11.7529 20.7098L11.938 15.6147C11.9429 15.4973 12.0365 15.4053 12.1514 15.4053C12.2652 15.4053 12.3589 15.497 12.3646 15.6147L12.5737 20.7098L12.3646 23.3718Z" fill="white"/>
<path d="M14.4864 23.33V23.3296C14.4813 23.4704 14.3693 23.5809 14.2302 23.5809C14.0905 23.5809 13.9778 23.47 13.974 23.3297L13.8142 20.7103L13.9737 15.004C13.9775 14.862 14.0902 14.7511 14.2302 14.7511C14.3693 14.7511 14.482 14.8623 14.4864 15.004L14.666 20.7106L14.4864 23.3286V23.3296C14.4864 23.3294 14.4864 23.3291 14.4864 23.3289V23.33Z" fill="white"/>
<path d="M26.8722 17.6608C27.243 17.5067 27.65 17.4211 28.0766 17.4211C29.7962 17.4211 31.1901 18.8035 31.1902 20.5085C31.1902 22.2134 29.7959 23.5955 28.0764 23.5955C28.0208 23.5955 19.4531 23.5912 19.4452 23.5904C19.2592 23.5718 19.1114 23.4144 19.1089 23.2255V13.4283C19.1111 13.2483 19.1737 13.1554 19.4087 13.0653C20.0133 12.8335 20.6981 12.6964 21.4005 12.6964C24.2711 12.6964 26.6244 14.8787 26.8722 17.6608Z" fill="white"/>
<path d="M18.129 13.7589C18.1317 13.5719 18.2853 13.4197 18.4723 13.4197C18.6588 13.4197 18.8123 13.5719 18.815 13.7584L18.9678 20.7128L18.815 23.2368V23.2339C18.8123 23.4209 18.6588 23.5729 18.4723 23.5729C18.2853 23.5729 18.1317 23.4209 18.1293 23.2366L17.9885 20.7128L18.129 13.7589Z" fill="white"/>
</g>
<defs>
<linearGradient id="paint0_linear_736_1324" x1="18.5323" y1="0.676025" x2="18.5323" y2="35.6149" gradientUnits="userSpaceOnUse">
<stop stop-color="#FF7602"/>
<stop offset="1" stop-color="#FF3502"/>
</linearGradient>
<clipPath id="clip0_736_1324">
<rect width="174" height="36" fill="white"/>
</clipPath>
</defs>
</svg>
